<mxfile host="app.diagrams.net" agent="Mozilla/5.0 (Macintosh; Intel Mac OS X 10_15_7) AppleWebKit/605.1.15 (KHTML, like Gecko) Version/18.6 Safari/605.1.15" version="28.1.1">
  <diagram name="Страница — 1" id="qrp6O6L5IkrjdUspQetW">
    <mxGraphModel dx="2631" dy="606" grid="1" gridSize="10" guides="1" tooltips="1" connect="1" arrows="1" fold="1" page="1" pageScale="1" pageWidth="291" pageHeight="413" math="0" shadow="0">
      <root>
        <mxCell id="0" />
        <mxCell id="1" parent="0" />
        <mxCell id="Z9O_MCWXYDCbDexsOa1i-2" value="&lt;font style=&quot;font-size: 13px;&quot;&gt;Сайт передлования символов в римские&amp;nbsp;&lt;/font&gt;" style="text;html=1;align=center;verticalAlign=middle;whiteSpace=wrap;rounded=0;" vertex="1" parent="1">
          <mxGeometry x="-1110" y="290" width="240" height="120" as="geometry" />
        </mxCell>
        <mxCell id="Z9O_MCWXYDCbDexsOa1i-3" value="&lt;div&gt;Ответственность&lt;/div&gt;&lt;div&gt;Фронтед: CSS + JavaScript + HTML -&lt;/div&gt;&lt;div&gt;Отмечается только как посредник между клиентами и секретером&amp;nbsp;&lt;/div&gt;&lt;div&gt;&lt;br&gt;&lt;/div&gt;&lt;div&gt;Бэкэнд: Сервер на го + импорты&lt;/div&gt;&lt;div&gt;&lt;br&gt;&lt;/div&gt;&lt;div&gt;&lt;br&gt;&lt;/div&gt;&lt;div&gt;База данных: Постгрес&amp;nbsp;&lt;/div&gt;&lt;div&gt;&lt;br&gt;&lt;/div&gt;&lt;div&gt;&lt;br&gt;&lt;/div&gt;" style="rounded=1;whiteSpace=wrap;html=1;" vertex="1" parent="1">
          <mxGeometry x="-1360" y="420" width="220" height="200" as="geometry" />
        </mxCell>
        <mxCell id="Z9O_MCWXYDCbDexsOa1i-4" value="Тип передачи на сервре: Json формат такого формата&amp;nbsp;&lt;div&gt;&lt;br&gt;&lt;/div&gt;&lt;div&gt;String json&amp;nbsp;&lt;/div&gt;" style="rounded=1;whiteSpace=wrap;html=1;" vertex="1" parent="1">
          <mxGeometry x="-770" y="420" width="120" height="140" as="geometry" />
        </mxCell>
        <mxCell id="Z9O_MCWXYDCbDexsOa1i-5" value="Шифровка: AES + bcrypt + script&amp;nbsp;" style="whiteSpace=wrap;html=1;" vertex="1" parent="1">
          <mxGeometry x="-790" y="630" width="120" height="60" as="geometry" />
        </mxCell>
        <mxCell id="Z9O_MCWXYDCbDexsOa1i-14" value="" style="edgeStyle=orthogonalEdgeStyle;rounded=0;orthogonalLoop=1;jettySize=auto;html=1;" edge="1" parent="1" target="Z9O_MCWXYDCbDexsOa1i-13">
          <mxGeometry relative="1" as="geometry">
            <mxPoint x="-986" y="650" as="sourcePoint" />
          </mxGeometry>
        </mxCell>
        <mxCell id="Z9O_MCWXYDCbDexsOa1i-6" value="Стока в ввиде json&amp;nbsp;&lt;div&gt;&lt;br&gt;&lt;/div&gt;" style="rounded=1;whiteSpace=wrap;html=1;" vertex="1" parent="1">
          <mxGeometry x="-1056.5" y="610" width="160" height="70" as="geometry" />
        </mxCell>
        <mxCell id="Z9O_MCWXYDCbDexsOa1i-11" value="&lt;b&gt;&lt;font style=&quot;font-size: 24px;&quot;&gt;Абстракция&amp;nbsp;&lt;/font&gt;&lt;/b&gt;&lt;div&gt;&lt;b&gt;&lt;font style=&quot;font-size: 24px;&quot;&gt;Системы&lt;/font&gt;&lt;/b&gt;&lt;/div&gt;" style="text;html=1;align=center;verticalAlign=middle;whiteSpace=wrap;rounded=0;" vertex="1" parent="1">
          <mxGeometry x="-1031.5" y="530" width="110" height="55" as="geometry" />
        </mxCell>
        <mxCell id="Z9O_MCWXYDCbDexsOa1i-16" style="edgeStyle=orthogonalEdgeStyle;rounded=0;orthogonalLoop=1;jettySize=auto;html=1;entryX=0.5;entryY=0;entryDx=0;entryDy=0;" edge="1" parent="1" source="Z9O_MCWXYDCbDexsOa1i-13" target="Z9O_MCWXYDCbDexsOa1i-15">
          <mxGeometry relative="1" as="geometry" />
        </mxCell>
        <mxCell id="Z9O_MCWXYDCbDexsOa1i-13" value="Дешифровка json файла&amp;nbsp;" style="whiteSpace=wrap;html=1;rounded=1;" vertex="1" parent="1">
          <mxGeometry x="-1036" y="780" width="120" height="60" as="geometry" />
        </mxCell>
        <mxCell id="Z9O_MCWXYDCbDexsOa1i-24" style="edgeStyle=orthogonalEdgeStyle;rounded=0;orthogonalLoop=1;jettySize=auto;html=1;" edge="1" parent="1" source="Z9O_MCWXYDCbDexsOa1i-15" target="Z9O_MCWXYDCbDexsOa1i-23">
          <mxGeometry relative="1" as="geometry" />
        </mxCell>
        <mxCell id="Z9O_MCWXYDCbDexsOa1i-34" style="edgeStyle=orthogonalEdgeStyle;rounded=0;orthogonalLoop=1;jettySize=auto;html=1;exitX=0.5;exitY=1;exitDx=0;exitDy=0;entryX=0.5;entryY=0;entryDx=0;entryDy=0;" edge="1" parent="1" source="Z9O_MCWXYDCbDexsOa1i-15" target="Z9O_MCWXYDCbDexsOa1i-33">
          <mxGeometry relative="1" as="geometry" />
        </mxCell>
        <mxCell id="Z9O_MCWXYDCbDexsOa1i-15" value="Бэкэнд:&lt;div&gt;Преврощание строку в римское строку&amp;nbsp;&lt;/div&gt;" style="rounded=1;whiteSpace=wrap;html=1;" vertex="1" parent="1">
          <mxGeometry x="-1065.5" y="880" width="179" height="140" as="geometry" />
        </mxCell>
        <mxCell id="Z9O_MCWXYDCbDexsOa1i-37" style="edgeStyle=orthogonalEdgeStyle;rounded=0;orthogonalLoop=1;jettySize=auto;html=1;" edge="1" parent="1" source="Z9O_MCWXYDCbDexsOa1i-18" target="Z9O_MCWXYDCbDexsOa1i-36">
          <mxGeometry relative="1" as="geometry" />
        </mxCell>
        <mxCell id="Z9O_MCWXYDCbDexsOa1i-18" value="БД&lt;div&gt;Сохроняем шифровку строки и куки автора&amp;nbsp;&lt;/div&gt;" style="ellipse;whiteSpace=wrap;html=1;aspect=fixed;" vertex="1" parent="1">
          <mxGeometry x="-1036" y="1400" width="160" height="160" as="geometry" />
        </mxCell>
        <mxCell id="Z9O_MCWXYDCbDexsOa1i-21" style="edgeStyle=orthogonalEdgeStyle;rounded=0;orthogonalLoop=1;jettySize=auto;html=1;" edge="1" parent="1" source="Z9O_MCWXYDCbDexsOa1i-19" target="Z9O_MCWXYDCbDexsOa1i-18">
          <mxGeometry relative="1" as="geometry" />
        </mxCell>
        <mxCell id="Z9O_MCWXYDCbDexsOa1i-46" style="edgeStyle=orthogonalEdgeStyle;rounded=0;orthogonalLoop=1;jettySize=auto;html=1;" edge="1" parent="1" source="Z9O_MCWXYDCbDexsOa1i-19" target="Z9O_MCWXYDCbDexsOa1i-45">
          <mxGeometry relative="1" as="geometry" />
        </mxCell>
        <mxCell id="Z9O_MCWXYDCbDexsOa1i-19" value="Шифруем&amp;nbsp;&lt;div&gt;строку &amp;nbsp;с AES&lt;/div&gt;" style="rhombus;whiteSpace=wrap;html=1;" vertex="1" parent="1">
          <mxGeometry x="-1036" y="1220" width="160" height="140" as="geometry" />
        </mxCell>
        <mxCell id="Z9O_MCWXYDCbDexsOa1i-23" value="подтягиваем куки автора которое мы положили при логини" style="rounded=1;whiteSpace=wrap;html=1;" vertex="1" parent="1">
          <mxGeometry x="-1370" y="920" width="120" height="60" as="geometry" />
        </mxCell>
        <mxCell id="Z9O_MCWXYDCbDexsOa1i-25" style="edgeStyle=orthogonalEdgeStyle;rounded=0;orthogonalLoop=1;jettySize=auto;html=1;entryX=0.006;entryY=0.55;entryDx=0;entryDy=0;entryPerimeter=0;" edge="1" parent="1" source="Z9O_MCWXYDCbDexsOa1i-23" target="Z9O_MCWXYDCbDexsOa1i-18">
          <mxGeometry relative="1" as="geometry" />
        </mxCell>
        <mxCell id="Z9O_MCWXYDCbDexsOa1i-27" style="edgeStyle=orthogonalEdgeStyle;rounded=0;orthogonalLoop=1;jettySize=auto;html=1;entryX=1;entryY=0.5;entryDx=0;entryDy=0;" edge="1" parent="1" source="Z9O_MCWXYDCbDexsOa1i-26" target="Z9O_MCWXYDCbDexsOa1i-15">
          <mxGeometry relative="1" as="geometry" />
        </mxCell>
        <mxCell id="Z9O_MCWXYDCbDexsOa1i-26" value="Маштрбирование;&lt;div&gt;Использовать грутину,&lt;/div&gt;&lt;div&gt;отдавать пользователю 200&lt;/div&gt;&lt;div&gt;а фоном предеаловать строку&lt;/div&gt;" style="ellipse;shape=cloud;whiteSpace=wrap;html=1;fillColor=#dae8fc;strokeColor=#6c8ebf;" vertex="1" parent="1">
          <mxGeometry x="-820" y="750" width="240" height="190" as="geometry" />
        </mxCell>
        <mxCell id="Z9O_MCWXYDCbDexsOa1i-28" value="&lt;div&gt;Функциональные:&lt;/div&gt;&lt;div&gt;Переделай строку в римские числа и положить в БД&lt;/div&gt;" style="rounded=1;whiteSpace=wrap;html=1;" vertex="1" parent="1">
          <mxGeometry x="-1345" y="650" width="170" height="160" as="geometry" />
        </mxCell>
        <mxCell id="Z9O_MCWXYDCbDexsOa1i-30" value="" style="shape=waypoint;sketch=0;size=6;pointerEvents=1;points=[];fillColor=none;resizable=0;rotatable=0;perimeter=centerPerimeter;snapToPoint=1;" vertex="1" parent="1">
          <mxGeometry x="-1270" y="1380" width="20" height="20" as="geometry" />
        </mxCell>
        <mxCell id="Z9O_MCWXYDCbDexsOa1i-31" value="" style="whiteSpace=wrap;html=1;" vertex="1" parent="1">
          <mxGeometry x="20" y="1020" width="120" height="60" as="geometry" />
        </mxCell>
        <mxCell id="Z9O_MCWXYDCbDexsOa1i-35" style="edgeStyle=orthogonalEdgeStyle;rounded=0;orthogonalLoop=1;jettySize=auto;html=1;entryX=0.5;entryY=0;entryDx=0;entryDy=0;" edge="1" parent="1" source="Z9O_MCWXYDCbDexsOa1i-33" target="Z9O_MCWXYDCbDexsOa1i-19">
          <mxGeometry relative="1" as="geometry" />
        </mxCell>
        <mxCell id="Z9O_MCWXYDCbDexsOa1i-33" value="Лог для уверенности&lt;div&gt;что все хорошо&amp;nbsp;&lt;/div&gt;" style="rhombus;whiteSpace=wrap;html=1;" vertex="1" parent="1">
          <mxGeometry x="-1020" y="1050" width="170" height="120" as="geometry" />
        </mxCell>
        <mxCell id="Z9O_MCWXYDCbDexsOa1i-36" value="&lt;font style=&quot;font-size: 45px;&quot;&gt;Отдаем&lt;/font&gt;&lt;div&gt;&lt;span style=&quot;font-size: 45px;&quot;&gt;status OK&lt;/span&gt;&lt;/div&gt;" style="rounded=1;whiteSpace=wrap;html=1;" vertex="1" parent="1">
          <mxGeometry x="-1084" y="1650" width="256" height="130" as="geometry" />
        </mxCell>
        <mxCell id="Z9O_MCWXYDCbDexsOa1i-45" value="Ошибка:&amp;nbsp;&lt;div&gt;Отдаем 301&lt;/div&gt;" style="rounded=1;whiteSpace=wrap;html=1;fillColor=#f8cecc;strokeColor=#b85450;" vertex="1" parent="1">
          <mxGeometry x="-800" y="1250" width="120" height="80" as="geometry" />
        </mxCell>
        <mxCell id="Z9O_MCWXYDCbDexsOa1i-47" value="Неофункцианальные:&lt;div&gt;Скорость:10 мл/с -&amp;gt; 20-15 мл/с&lt;/div&gt;&lt;div&gt;Размер строки: не больше 512 бит&amp;nbsp;&lt;/div&gt;" style="rounded=1;whiteSpace=wrap;html=1;" vertex="1" parent="1">
          <mxGeometry x="-1550" y="656" width="150" height="170" as="geometry" />
        </mxCell>
        <mxCell id="Z9O_MCWXYDCbDexsOa1i-49" value="" style="group" vertex="1" connectable="0" parent="1">
          <mxGeometry x="-1630" y="430" width="240" height="170" as="geometry" />
        </mxCell>
        <mxCell id="Z9O_MCWXYDCbDexsOa1i-38" value="StringToRoman" style="swimlane;fontStyle=0;childLayout=stackLayout;horizontal=1;startSize=30;horizontalStack=0;resizeParent=1;resizeParentMax=0;resizeLast=0;collapsible=1;marginBottom=0;whiteSpace=wrap;html=1;" vertex="1" parent="Z9O_MCWXYDCbDexsOa1i-49">
          <mxGeometry y="50" width="240" height="120" as="geometry" />
        </mxCell>
        <mxCell id="Z9O_MCWXYDCbDexsOa1i-41" value="Nonce" style="text;strokeColor=none;fillColor=none;align=left;verticalAlign=middle;spacingLeft=4;spacingRight=4;overflow=hidden;points=[[0,0.5],[1,0.5]];portConstraint=eastwest;rotatable=0;whiteSpace=wrap;html=1;" vertex="1" parent="Z9O_MCWXYDCbDexsOa1i-38">
          <mxGeometry y="30" width="240" height="30" as="geometry" />
        </mxCell>
        <mxCell id="Z9O_MCWXYDCbDexsOa1i-40" value="StringToRomaHash" style="text;strokeColor=none;fillColor=none;align=left;verticalAlign=middle;spacingLeft=4;spacingRight=4;overflow=hidden;points=[[0,0.5],[1,0.5]];portConstraint=eastwest;rotatable=0;whiteSpace=wrap;html=1;" vertex="1" parent="Z9O_MCWXYDCbDexsOa1i-38">
          <mxGeometry y="60" width="240" height="30" as="geometry" />
        </mxCell>
        <mxCell id="Z9O_MCWXYDCbDexsOa1i-39" value="Cookie_Author" style="text;strokeColor=none;fillColor=none;align=left;verticalAlign=middle;spacingLeft=4;spacingRight=4;overflow=hidden;points=[[0,0.5],[1,0.5]];portConstraint=eastwest;rotatable=0;whiteSpace=wrap;html=1;" vertex="1" parent="Z9O_MCWXYDCbDexsOa1i-38">
          <mxGeometry y="90" width="240" height="30" as="geometry" />
        </mxCell>
        <mxCell id="Z9O_MCWXYDCbDexsOa1i-42" value="&lt;font style=&quot;font-size: 22px;&quot;&gt;Модель данных&lt;/font&gt;" style="text;html=1;align=center;verticalAlign=middle;whiteSpace=wrap;rounded=0;" vertex="1" parent="Z9O_MCWXYDCbDexsOa1i-49">
          <mxGeometry x="60" width="100" height="40" as="geometry" />
        </mxCell>
      </root>
    </mxGraphModel>
  </diagram>
</mxfile>
